<svg aria-hidden="true" style="position: absolute; width: 0; height: 0; overflow: hidden;" version="1.1" xmlns="http://www.w3.org/2000/svg" xmlns:xlink="http://www.w3.org/1999/xlink">
<defs>
<symbol id="icon-adv1" viewBox="0 0 32 32" fill="#ffffff">
<path d="M10.246 32c-0.018 0-0.037-0.001-0.055-0.003-0 0-0.001-0-0.001-0s-0.001-0-0.001-0-0.001 0-0.001-0-0.001-0-0.001-0c-0.019-0.002-0.038-0.006-0.056-0.011-0 0-0-0-0.001-0-0.078-0.020-0.15-0.061-0.209-0.12-0-0-0-0.001-0.001-0.001s-0.001-0.001-0.001-0.001-0.001-0.001-0.001-0.001l-6.284-6.451c-0-0-0.001-0.001-0.001-0.001s0-0-0-0-0.001-0.001-0.001-0.001c-0.055-0.057-0.093-0.126-0.113-0.2 0-0 0-0 0-0s-0-0.001-0-0.001c0 0 0-0.001-0-0.001-0.006-0.022-0.010-0.044-0.012-0.067 0 0 0-0 0-0s0-0.001 0-0.001c0-0 0-0 0-0.001s0-0.001 0-0.001 0-0 0-0c-0.002-0.016-0.002-0.033-0.002-0.049v-24.627c0-0.254 0.205-0.459 0.459-0.459h24.076c0.254 0 0.459 0.205 0.459 0.459v31.082c0 0.254-0.205 0.459-0.459 0.459h-17.79c-0.001 0-0.002 0-0.003 0zM10.704 31.082h16.875v-30.164h-23.158v23.712h5.825c0.254 0 0.459 0.205 0.459 0.459v5.993zM5.050 25.548l4.737 4.864v-4.864h-4.737zM24.982 22.698h-17.879c-0.254 0-0.459-0.205-0.459-0.459s0.205-0.459 0.459-0.459h17.879c0.254 0 0.459 0.205 0.459 0.459s-0.205 0.459-0.459 0.459zM24.982 20.342h-17.879c-0.254 0-0.459-0.205-0.459-0.459s0.205-0.459 0.459-0.459h17.879c0.254 0 0.459 0.205 0.459 0.459s-0.205 0.459-0.459 0.459zM21.456 17.062c-0.108 0-0.214-0.038-0.298-0.11-0.099-0.085-0.158-0.208-0.161-0.339l-0.017-0.76-3.155-0.492c-0.128-0.020-0.241-0.093-0.312-0.201s-0.093-0.241-0.061-0.366l1.205-4.706c-0.737-0.704-1.228-1.67-1.316-2.763-0.192-2.367 1.578-4.449 3.946-4.641 2.366-0.192 4.449 1.578 4.64 3.945v0c0.107 1.326-0.401 2.562-1.285 3.427l1.248 5.902c0.026 0.125-0 0.255-0.074 0.359s-0.187 0.173-0.313 0.191l-3.985 0.548c-0.021 0.003-0.042 0.005-0.063 0.005zM21.793 11.282l0.11 4.796 2.986-0.411-1.055-4.988c-0.548 0.327-1.177 0.537-1.854 0.592-0.062 0.005-0.125 0.008-0.187 0.011zM18.466 14.532l2.427 0.379 0.060-0.257-0.079-3.436c-0.509-0.091-0.99-0.273-1.424-0.529l-0.984 3.844zM21.635 3.588c-0.091 0-0.183 0.004-0.276 0.011-1.863 0.151-3.256 1.789-3.105 3.651s1.791 3.257 3.652 3.105c1.863-0.151 3.256-1.789 3.105-3.652v0c-0.144-1.77-1.63-3.116-3.376-3.116zM14.479 10.871h-7.375c-0.254 0-0.459-0.205-0.459-0.459s0.205-0.459 0.459-0.459h7.375c0.254 0 0.459 0.205 0.459 0.459s-0.206 0.459-0.459 0.459zM14.479 8.093h-7.375c-0.254 0-0.459-0.205-0.459-0.459s0.205-0.459 0.459-0.459h7.375c0.254 0 0.459 0.205 0.459 0.459s-0.206 0.459-0.459 0.459zM14.479 5.146h-7.375c-0.254 0-0.459-0.205-0.459-0.459s0.205-0.459 0.459-0.459h7.375c0.254 0 0.459 0.205 0.459 0.459s-0.206 0.459-0.459 0.459z"></path>
</symbol>
<symbol id="icon-adv2" viewBox="0 0 32 32" fill="#ffffff">
<path d="M20.976 0c-6.078 0-11.024 4.945-11.024 11.024 0 2.501 0.838 4.81 2.247 6.662l-2.233 2.233c-0.014 0.014-0.027 0.029-0.039 0.044-0.183-0.038-0.371-0.058-0.562-0.058-0.729 0-1.415 0.284-1.931 0.8l-6.635 6.635c-0.516 0.516-0.8 1.201-0.8 1.93s0.284 1.415 0.799 1.93c0.516 0.516 1.201 0.8 1.931 0.8s1.415-0.284 1.931-0.8l6.635-6.635c0.516-0.515 0.8-1.201 0.8-1.93 0-0.191-0.020-0.379-0.058-0.562 0.015-0.012 0.030-0.025 0.044-0.039l2.233-2.233c1.852 1.409 4.161 2.247 6.662 2.247 6.078 0 11.024-4.945 11.024-11.024s-4.945-11.024-11.024-11.024zM3.928 30.467c-0.32 0.32-0.745 0.496-1.197 0.496s-0.877-0.176-1.197-0.496c-0.32-0.32-0.496-0.745-0.496-1.197s0.176-0.877 0.496-1.197l5.992-5.992 2.395 2.395-5.992 5.992zM10.649 23.739l-2.386-2.386c0.316-0.272 0.709-0.41 1.103-0.41 0.434 0 0.867 0.165 1.197 0.495 0.32 0.32 0.496 0.745 0.496 1.197 0 0.41-0.145 0.797-0.41 1.104zM11.593 21.057c-0.088-0.124-0.187-0.242-0.297-0.352s-0.228-0.209-0.352-0.297l1.924-1.924c0.207 0.225 0.424 0.442 0.649 0.649l-1.924 1.924zM20.976 21.011c-5.507 0-9.987-4.48-9.987-9.987s4.48-9.987 9.987-9.987 9.987 4.48 9.987 9.987-4.48 9.987-9.987 9.987z"></path>
<path d="M20.976 2.212c-4.859 0-8.812 3.953-8.812 8.812s3.953 8.812 8.812 8.812 8.812-3.953 8.812-8.812-3.953-8.812-8.812-8.812zM20.976 18.799c-4.287 0-7.775-3.488-7.775-7.775s3.488-7.775 7.775-7.775 7.775 3.488 7.775 7.775-3.488 7.775-7.775 7.775z"></path>
<path d="M24.576 5.49c-0.24-0.156-0.561-0.089-0.717 0.151s-0.089 0.561 0.151 0.717c1.584 1.033 2.53 2.776 2.53 4.665 0 1.29-0.452 2.548-1.272 3.54-0.182 0.221-0.151 0.547 0.070 0.73 0.097 0.080 0.214 0.119 0.33 0.119 0.149 0 0.297-0.064 0.4-0.188 0.973-1.178 1.509-2.67 1.509-4.201 0-2.24-1.122-4.309-3.001-5.534z"></path>
<path d="M22.176 4.532c-0.393-0.072-0.797-0.109-1.199-0.109-0.286 0-0.518 0.232-0.518 0.518s0.232 0.518 0.518 0.518c0.34 0 0.681 0.031 1.012 0.092 0.032 0.006 0.063 0.009 0.094 0.009 0.245 0 0.463-0.175 0.509-0.425 0.052-0.282-0.135-0.552-0.416-0.604z"></path>
</symbol>
<symbol id="icon-adv3" viewBox="0 0 32 32" fill="#ffffff">
<path d="M25.4 2.212h-3.99c-0.217-0.642-0.825-1.106-1.539-1.106h-1.688c-0.512-0.689-1.323-1.106-2.183-1.106s-1.671 0.417-2.183 1.106h-1.687c-0.714 0-1.322 0.464-1.539 1.106h-3.99c-1.2 0-2.177 0.977-2.177 2.177v25.434c0 1.2 0.977 2.177 2.177 2.177h18.799c1.2 0 2.177-0.977 2.177-2.177v-25.434c0-1.2-0.977-2.177-2.177-2.177zM12.13 6.013h7.741c0.485 0 0.921-0.214 1.219-0.553h3.239v23.292h-16.657v-23.292h3.239c0.298 0.339 0.734 0.553 1.219 0.553zM12.13 2.143h1.965c0.185 0 0.355-0.098 0.448-0.258 0.309-0.531 0.854-0.848 1.457-0.848s1.148 0.317 1.457 0.848c0.093 0.16 0.264 0.258 0.448 0.258h1.966c0.324 0 0.587 0.264 0.587 0.587v1.659c0 0.324-0.264 0.587-0.587 0.587h-7.741c-0.324 0-0.587-0.264-0.587-0.587v-1.659c0-0.324 0.264-0.587 0.587-0.587zM26.54 29.823c0 0.629-0.512 1.14-1.14 1.14h-18.799c-0.629 0-1.14-0.512-1.14-1.14v-25.434c0-0.629 0.512-1.14 1.14-1.14h3.905v1.14c0 0.012 0.001 0.023 0.001 0.035h-3.353c-0.286 0-0.518 0.232-0.518 0.518v24.328c0 0.286 0.232 0.518 0.518 0.518h17.693c0.286 0 0.518-0.232 0.518-0.518v-24.328c0-0.286-0.232-0.518-0.518-0.518h-3.353c0-0.012 0.001-0.023 0.001-0.035v-1.14h3.905c0.629 0 1.14 0.512 1.14 1.14v25.434z"></path>
<path d="M16 3.248c0.137 0 0.27-0.055 0.366-0.152s0.152-0.23 0.152-0.366-0.055-0.27-0.152-0.366c-0.096-0.097-0.229-0.152-0.366-0.152s-0.27 0.055-0.366 0.152c-0.097 0.096-0.152 0.229-0.152 0.366s0.055 0.27 0.152 0.366c0.096 0.097 0.229 0.152 0.366 0.152z"></path>
<path d="M12.682 10.989h9.4c0.286 0 0.518-0.232 0.518-0.518s-0.232-0.518-0.518-0.518h-9.4c-0.286 0-0.518 0.232-0.518 0.518s0.232 0.518 0.518 0.518z"></path>
<path d="M12.682 16.518h9.4c0.286 0 0.518-0.232 0.518-0.518s-0.232-0.518-0.518-0.518h-9.4c-0.286 0-0.518 0.232-0.518 0.518s0.232 0.518 0.518 0.518z"></path>
<path d="M12.682 22.048h1.659c0.286 0 0.518-0.232 0.518-0.518s-0.232-0.518-0.518-0.518h-1.659c-0.286 0-0.518 0.232-0.518 0.518s0.232 0.518 0.518 0.518z"></path>
<path d="M12.682 13.754h9.4c0.286 0 0.518-0.232 0.518-0.518s-0.232-0.518-0.518-0.518h-9.4c-0.286 0-0.518 0.232-0.518 0.518s0.232 0.518 0.518 0.518z"></path>
<path d="M12.682 19.283h2.212c0.286 0 0.518-0.232 0.518-0.518s-0.232-0.518-0.518-0.518h-2.212c-0.286 0-0.518 0.232-0.518 0.518s0.232 0.518 0.518 0.518z"></path>
<path d="M12.682 24.812h2.212c0.286 0 0.518-0.232 0.518-0.518s-0.232-0.518-0.518-0.518h-2.212c-0.286 0-0.518 0.232-0.518 0.518s0.232 0.518 0.518 0.518z"></path>
<path d="M9.918 10.989h0.553c0.286 0 0.518-0.232 0.518-0.518s-0.232-0.518-0.518-0.518h-0.553c-0.286 0-0.518 0.232-0.518 0.518s0.232 0.518 0.518 0.518z"></path>
<path d="M9.918 16.518h0.553c0.286 0 0.518-0.232 0.518-0.518s-0.232-0.518-0.518-0.518h-0.553c-0.286 0-0.518 0.232-0.518 0.518s0.232 0.518 0.518 0.518z"></path>
<path d="M9.918 22.048h0.553c0.286 0 0.518-0.232 0.518-0.518s-0.232-0.518-0.518-0.518h-0.553c-0.286 0-0.518 0.232-0.518 0.518s0.232 0.518 0.518 0.518z"></path>
<path d="M9.918 13.754h0.553c0.286 0 0.518-0.232 0.518-0.518s-0.232-0.518-0.518-0.518h-0.553c-0.286 0-0.518 0.232-0.518 0.518s0.232 0.518 0.518 0.518z"></path>
<path d="M9.918 19.283h0.553c0.286 0 0.518-0.232 0.518-0.518s-0.232-0.518-0.518-0.518h-0.553c-0.286 0-0.518 0.232-0.518 0.518s0.232 0.518 0.518 0.518z"></path>
<path d="M9.918 24.812h0.553c0.286 0 0.518-0.232 0.518-0.518s-0.232-0.518-0.518-0.518h-0.553c-0.286 0-0.518 0.232-0.518 0.518s0.232 0.518 0.518 0.518z"></path>
<path d="M19.317 18.246c-1.81 0-3.283 1.473-3.283 3.283s1.473 3.283 3.283 3.283c0.731 0 1.408-0.241 1.954-0.647 0.005-0.004 0.011-0.006 0.016-0.010 0.014-0.010 0.027-0.021 0.039-0.033 0.774-0.601 1.274-1.54 1.274-2.594 0-1.81-1.473-3.283-3.283-3.283zM18.799 19.344v1.667h-1.667c0.195-0.823 0.844-1.472 1.667-1.667zM17.132 22.048h1.926l1.156 1.541c-0.275 0.12-0.578 0.187-0.896 0.187-1.060 0-1.95-0.738-2.185-1.728zM21.043 22.966l-1.207-1.609v-2.012c0.989 0.235 1.728 1.125 1.728 2.185 0 0.546-0.196 1.047-0.521 1.436z"></path>
</symbol>
<symbol id="icon-adv4" viewBox="0 0 32 32" fill="#ffffff">
<path d="M7.969 24.663c0 0.597-0.484 1.081-1.081 1.081s-1.081-0.484-1.081-1.081c0-0.597 0.484-1.081 1.081-1.081s1.081 0.484 1.081 1.081z"></path>
<path d="M31.351 18.83c0-0.531-0.165-1.025-0.445-1.433 0.66-0.458 1.094-1.222 1.094-2.085 0-1.399-1.138-2.537-2.536-2.537h-6.668l0.422-0.947c0.617-1.385 0.932-2.856 0.936-4.372 0 0 0.004-1.85 0.004-1.861 0-1.437-1.169-2.607-2.607-2.607-1.069 0-2.018 0.64-2.418 1.631-0.018 0.044-0.624 1.831-0.624 1.831-0.547 1.589-1.518 2.999-2.807 4.078l-3.093 2.588h-1.788v-0.816c0-0.858-0.698-1.555-1.555-1.555h-7.709c-0.858 0-1.555 0.698-1.555 1.555v15.157c0 0.858 0.698 1.555 1.555 1.555h7.709c0.858 0 1.555-0.698 1.555-1.555v-1.218h0.976l0.969 0.469c2.293 1.108 4.851 1.694 7.398 1.694h7.354c1.399 0 2.537-1.138 2.537-2.536 0-0.531-0.165-1.025-0.445-1.433 0.66-0.458 1.094-1.222 1.094-2.085 0-0.531-0.165-1.025-0.445-1.433 0.66-0.458 1.094-1.222 1.094-2.085zM9.264 27.456h-7.709v-15.157h7.709l0.001 15.157c0 0-0 0-0.001 0zM29.464 16.293h-1.107c-0.43 0-0.778 0.348-0.778 0.778s0.348 0.778 0.778 0.778h0.458c0.541 0 0.981 0.44 0.981 0.981s-0.44 0.981-0.981 0.981h-1.107c-0.43 0-0.778 0.348-0.778 0.778s0.348 0.778 0.778 0.778h0.458c0.541 0 0.981 0.44 0.981 0.981s-0.44 0.981-0.981 0.981h-1.107c-0.43 0-0.778 0.348-0.778 0.778s0.348 0.778 0.778 0.778h0.458c0.541 0 0.981 0.44 0.981 0.981s-0.44 0.981-0.981 0.981h-7.354c-2.314 0-4.638-0.532-6.721-1.539l-1.13-0.546c-0.105-0.051-0.221-0.078-0.338-0.078h-1.154v-10.012h2.071c0.182 0 0.359-0.064 0.499-0.181l3.31-2.769c1.506-1.26 2.64-2.908 3.279-4.764 0 0 0.619-1.801 0.622-1.814 0.174-0.366 0.54-0.599 0.949-0.599 0.58 0 1.052 0.472 1.052 1.052 0 0.010-0.004 1.858-0.004 1.858-0.003 1.298-0.272 2.557-0.801 3.742l-0.906 2.031c-0.079 0.178-0.086 0.37-0.033 0.543 0.004 0.015 0.172 0.562 0.747 0.562h7.859c0.541 0 0.981 0.44 0.981 0.981s-0.44 0.981-0.981 0.981z"></path>
</symbol>
</defs>
</svg>
