<?xml version="1.0" standalone="no"?>
<!DOCTYPE svg PUBLIC "-//W3C//DTD SVG 20010904//EN"
 "http://www.w3.org/TR/2001/REC-SVG-20010904/DTD/svg10.dtd">
<svg version="1.0" xmlns="http://www.w3.org/2000/svg"
 width="89.000000pt" height="89.000000pt" viewBox="0 0 89.000000 89.000000"
 preserveAspectRatio="xMidYMid meet">
<metadata>
Created by potrace 1.14, written by Peter Selinger 2001-2017
</metadata>
<g transform="translate(0.000000,89.000000) scale(0.100000,-0.100000)"
fill="#000000" stroke="none">
<path d="M263 775 c-102 -47 -148 -119 -148 -230 1 -80 21 -129 77 -182 66
-63 132 -79 311 -74 84 2 122 68 61 107 -16 11 -56 17 -129 19 -105 3 -133 11
-172 51 -37 36 -37 105 -1 157 36 50 57 55 270 56 108 0 208 5 222 10 29 12
48 43 40 66 -15 38 -55 45 -271 45 -199 0 -210 -1 -260 -25z"/>
<path d="M361 603 c-49 -17 -62 -43 -41 -83 13 -23 54 -33 160 -35 99 -3 127
-12 163 -55 49 -57 27 -154 -44 -192 -29 -16 -59 -18 -231 -18 -129 0 -206 -4
-223 -12 -36 -16 -43 -54 -16 -81 21 -21 29 -22 254 -22 219 0 234 1 273 22
188 101 183 362 -9 456 -47 23 -71 27 -154 30 -56 1 -112 -3 -132 -10z"/>
</g>
</svg>
