<?xml version="1.0" standalone="no"?>
<!DOCTYPE svg PUBLIC "-//W3C//DTD SVG 20010904//EN"
 "http://www.w3.org/TR/2001/REC-SVG-20010904/DTD/svg10.dtd">
<svg version="1.0" xmlns="http://www.w3.org/2000/svg"
 width="72.000000pt" height="72.000000pt" viewBox="0 0 72.000000 72.000000"
 preserveAspectRatio="xMidYMid meet">
<metadata>
Created by potrace 1.14, written by Peter Selinger 2001-2017
</metadata>
<g transform="translate(0.000000,72.000000) scale(0.100000,-0.100000)"
fill="#000000" stroke="none">
<path d="M232 637 c-18 -6 -52 -27 -76 -48 -110 -97 -77 -275 64 -338 50 -22
217 -24 244 -2 19 16 21 41 3 65 -11 14 -30 19 -100 21 -47 1 -99 8 -115 14
-32 13 -62 58 -62 93 0 28 32 83 57 96 10 6 94 11 186 12 166 1 200 7 211 37
3 7 -3 22 -14 35 -18 22 -23 23 -192 24 -95 1 -188 -3 -206 -9z"/>
<path d="M289 488 c-15 -5 -29 -18 -32 -30 -7 -24 8 -57 26 -59 7 -1 47 -2 90
-4 90 -3 129 -17 153 -53 31 -48 9 -128 -43 -151 -14 -6 -90 -11 -181 -11
-173 0 -207 -8 -207 -50 0 -42 33 -50 215 -50 153 0 169 2 215 24 59 28 83 54
105 116 38 103 -8 202 -119 260 -29 15 -185 20 -222 8z"/>
</g>
</svg>
