<svg aria-hidden="true" style="width:0;height:0;position:absolute;overflow:hidden" xmlns="http://www.w3.org/2000/svg"><defs><symbol id="icon-clock" viewBox="0 0 32 32" fill="#bedee7"><path d="M16 2.667C8.653 2.667 2.667 8.654 2.667 16S8.654 29.333 16 29.333c7.347 0 13.333-5.987 13.333-13.333S23.346 2.667 16 2.667zm5.8 18.093a.995.995 0 0 1-.867.493.893.893 0 0 1-.507-.147l-4.133-2.467c-1.027-.613-1.787-1.96-1.787-3.147v-5.467c0-.547.453-1 1-1s1 .453 1 1v5.467c0 .48.4 1.187.813 1.427l4.133 2.467c.48.28.64.893.347 1.373z"/></symbol><symbol id="icon-phone" viewBox="0 0 32 32" fill="#bedee7"><path d="M28.512 23.669a2.81 2.81 0 0 1-.68 4.471l-.015.007a9.927 9.927 0 0 1-4.741 1.187c-.91 0-1.792-.121-2.631-.348l.07.016C14 27.362 4.636 17.998 2.996 11.483a9.84 9.84 0 0 1-.331-2.561c0-1.736.44-3.369 1.214-4.794l-.026.053a2.814 2.814 0 0 1 4.479-.696l2.78 2.779c.511.506.828 1.208.828 1.984 0 .405-.086.79-.241 1.138l.007-.018a5.185 5.185 0 0 1-1.039 1.564l.001-.001c-3.179 3.179 7.223 13.58 10.4 10.4.44-.428.959-.778 1.531-1.028l.033-.013c.33-.148.715-.235 1.12-.235a2.78 2.78 0 0 1 1.983.828z"/></symbol><symbol id="icon-letter" viewBox="0 0 32 32" fill="#bedee7"><path d="m21.336 16.615 10.509 9.162c.1-.328.155-.676.155-1.036V7.318l-10.664 9.297zM16 17.694a1.91 1.91 0 0 0 1.257-.471L31.225 5.046a3.547 3.547 0 0 0-2.78-1.342H3.556a3.547 3.547 0 0 0-2.78 1.342l13.968 12.177c.362.315.806.47 1.257.471zM0 7.318v17.423c0 .36.055.708.155 1.036l10.509-9.162L0 7.318zM18.717 18.898A4.125 4.125 0 0 1 16 19.916a4.129 4.129 0 0 1-2.717-1.018l-.928-.809-10.908 9.509c.59.436 1.318.697 2.109.697h24.889a3.54 3.54 0 0 0 2.109-.697l-10.908-9.509-.928.809z"/></symbol></defs></svg>