<svg aria-hidden="true" style="width:0;height:0;position:absolute;overflow:hidden" xmlns="http://www.w3.org/2000/svg"><defs><symbol id="icon-adv1" viewBox="0 0 32 32" fill="#fff"><path d="M10.246 32a.507.507 0 0 1-.055-.003h-.004a.347.347 0 0 1-.056-.011h-.001a.455.455 0 0 1-.209-.12l-.001-.001-.001-.001-.001-.001-6.284-6.451-.001-.001-.001-.001a.46.46 0 0 1-.113-.2s0-.001 0-.001v-.001a.376.376 0 0 1-.012-.067s0-.001 0-.001v-.002c-.002-.016-.002-.033-.002-.049V.462c0-.254.205-.459.459-.459H28.04c.254 0 .459.205.459.459v31.082a.458.458 0 0 1-.459.459H10.247zm.458-.918h16.875V.918H4.421V24.63h5.825c.254 0 .459.205.459.459v5.993zM5.05 25.548l4.737 4.864v-4.864H5.05zm19.932-2.85H7.103a.458.458 0 1 1 0-.918h17.879a.458.458 0 1 1 0 .918zm0-2.356H7.103a.458.458 0 1 1 0-.918h17.879a.458.458 0 1 1 0 .918zm-3.526-3.28a.458.458 0 0 1-.459-.449l-.017-.76-3.155-.492a.458.458 0 0 1-.373-.567l1.205-4.706a4.285 4.285 0 0 1-1.316-2.763 4.312 4.312 0 0 1 3.946-4.641 4.311 4.311 0 0 1 4.64 3.945 4.3 4.3 0 0 1-1.285 3.427l1.248 5.902a.457.457 0 0 1-.387.55l-3.985.548a.446.446 0 0 1-.063.005zm.337-5.78.11 4.796 2.986-.411-1.055-4.988a4.287 4.287 0 0 1-1.854.592c-.062.005-.125.008-.187.011zm-3.327 3.25 2.427.379.06-.257-.079-3.436a4.288 4.288 0 0 1-1.424-.529l-.984 3.844zm3.169-10.944a3.393 3.393 0 0 0-3.381 3.662 3.394 3.394 0 0 0 3.652 3.105 3.393 3.393 0 0 0 3.105-3.652 3.395 3.395 0 0 0-3.376-3.116zm-7.156 7.283H7.104a.458.458 0 1 1 0-.918h7.375a.458.458 0 1 1 0 .918zm0-2.778H7.104a.458.458 0 1 1 0-.918h7.375a.458.458 0 1 1 0 .918zm0-2.947H7.104a.458.458 0 1 1 0-.918h7.375a.458.458 0 1 1 0 .918z"/></symbol><symbol id="icon-adv2" viewBox="0 0 32 32" fill="#fff"><path d="M20.976 0C14.898 0 9.952 4.945 9.952 11.024c0 2.501.838 4.81 2.247 6.662l-2.233 2.233a.534.534 0 0 0-.039.044 2.713 2.713 0 0 0-2.493.742L.799 27.34c-.516.516-.8 1.201-.8 1.93s.284 1.415.799 1.93c.516.516 1.201.8 1.931.8s1.415-.284 1.931-.8l6.635-6.635a2.71 2.71 0 0 0 .8-1.93c0-.191-.02-.379-.058-.562a.534.534 0 0 0 .044-.039l2.233-2.233a10.968 10.968 0 0 0 6.662 2.247C27.054 22.048 32 17.103 32 11.024S27.055 0 20.976 0zM3.928 30.467c-.32.32-.745.496-1.197.496s-.877-.176-1.197-.496c-.32-.32-.496-.745-.496-1.197s.176-.877.496-1.197l5.992-5.992 2.395 2.395-5.992 5.992zm6.721-6.728-2.386-2.386a1.689 1.689 0 0 1 2.3.085c.32.32.496.745.496 1.197 0 .41-.145.797-.41 1.104zm.944-2.682a2.74 2.74 0 0 0-.649-.649l1.924-1.924c.207.225.424.442.649.649l-1.924 1.924zm9.383-.046c-5.507 0-9.987-4.48-9.987-9.987s4.48-9.987 9.987-9.987 9.987 4.48 9.987 9.987-4.48 9.987-9.987 9.987z"/><path d="M20.976 2.212c-4.859 0-8.812 3.953-8.812 8.812s3.953 8.812 8.812 8.812 8.812-3.953 8.812-8.812-3.953-8.812-8.812-8.812zm0 16.587c-4.287 0-7.775-3.488-7.775-7.775s3.488-7.775 7.775-7.775 7.775 3.488 7.775 7.775-3.488 7.775-7.775 7.775z"/><path d="M24.576 5.49a.518.518 0 1 0-.566.868 5.552 5.552 0 0 1 2.53 4.665 5.57 5.57 0 0 1-1.272 3.54.519.519 0 0 0 .8.661 6.611 6.611 0 0 0 1.509-4.201 6.586 6.586 0 0 0-3.001-5.534zM22.176 4.532a6.676 6.676 0 0 0-1.199-.109.518.518 0 0 0 0 1.036c.34 0 .681.031 1.012.092a.519.519 0 0 0 .187-1.02z"/></symbol><symbol id="icon-adv3" viewBox="0 0 32 32" fill="#fff"><path d="M25.4 2.212h-3.99a1.628 1.628 0 0 0-1.539-1.106h-1.688C17.671.417 16.86 0 16 0s-1.671.417-2.183 1.106H12.13c-.714 0-1.322.464-1.539 1.106h-3.99a2.18 2.18 0 0 0-2.177 2.177v25.434c0 1.2.977 2.177 2.177 2.177H25.4a2.18 2.18 0 0 0 2.177-2.177V4.389A2.18 2.18 0 0 0 25.4 2.212zM12.13 6.013h7.741a1.62 1.62 0 0 0 1.219-.553h3.239v23.292H7.672V5.46h3.239a1.62 1.62 0 0 0 1.219.553zm0-3.87h1.965a.517.517 0 0 0 .448-.258 1.675 1.675 0 0 1 2.914 0c.093.16.264.258.448.258h1.966c.324 0 .587.264.587.587v1.659a.588.588 0 0 1-.587.587H12.13a.588.588 0 0 1-.587-.587V2.73c0-.324.264-.587.587-.587zm14.41 27.68c0 .629-.512 1.14-1.14 1.14H6.601c-.629 0-1.14-.512-1.14-1.14V4.389c0-.629.512-1.14 1.14-1.14h3.905v1.14l.001.035H7.154a.518.518 0 0 0-.518.518V29.27c0 .286.232.518.518.518h17.693a.518.518 0 0 0 .518-.518V4.942a.518.518 0 0 0-.518-.518h-3.353l.001-.035v-1.14H25.4c.629 0 1.14.512 1.14 1.14v25.434z"/><path d="M16 3.248a.517.517 0 1 0 0-1.034.517.517 0 0 0 0 1.034zM12.682 10.989h9.4a.518.518 0 0 0 0-1.036h-9.4a.518.518 0 0 0 0 1.036zM12.682 16.518h9.4a.518.518 0 0 0 0-1.036h-9.4a.518.518 0 0 0 0 1.036zM12.682 22.048h1.659a.518.518 0 0 0 0-1.036h-1.659a.518.518 0 0 0 0 1.036zM12.682 13.754h9.4a.518.518 0 0 0 0-1.036h-9.4a.518.518 0 0 0 0 1.036zM12.682 19.283h2.212a.518.518 0 0 0 0-1.036h-2.212a.518.518 0 0 0 0 1.036zM12.682 24.812h2.212a.518.518 0 0 0 0-1.036h-2.212a.518.518 0 0 0 0 1.036zM9.918 10.989h.553a.518.518 0 0 0 0-1.036h-.553a.518.518 0 0 0 0 1.036zM9.918 16.518h.553a.518.518 0 0 0 0-1.036h-.553a.518.518 0 0 0 0 1.036zM9.918 22.048h.553a.518.518 0 0 0 0-1.036h-.553a.518.518 0 0 0 0 1.036zM9.918 13.754h.553a.518.518 0 0 0 0-1.036h-.553a.518.518 0 0 0 0 1.036zM9.918 19.283h.553a.518.518 0 0 0 0-1.036h-.553a.518.518 0 0 0 0 1.036zM9.918 24.812h.553a.518.518 0 0 0 0-1.036h-.553a.518.518 0 0 0 0 1.036zM19.317 18.246c-1.81 0-3.283 1.473-3.283 3.283s1.473 3.283 3.283 3.283c.731 0 1.408-.241 1.954-.647l.016-.01a.31.31 0 0 0 .039-.033 3.28 3.28 0 0 0 1.274-2.594 3.287 3.287 0 0 0-3.283-3.283zm-.518 1.098v1.667h-1.667a2.252 2.252 0 0 1 1.667-1.667zm-1.667 2.704h1.926l1.156 1.541a2.25 2.25 0 0 1-3.081-1.541zm3.911.918-1.207-1.609v-2.012a2.25 2.25 0 0 1 1.728 2.185c0 .546-.196 1.047-.521 1.436z"/></symbol><symbol id="icon-adv4" viewBox="0 0 32 32" fill="#fff"><path d="M7.969 24.663a1.081 1.081 0 1 1-2.162 0 1.081 1.081 0 0 1 2.162 0z"/><path d="M31.351 18.83c0-.531-.165-1.025-.445-1.433a2.536 2.536 0 0 0-1.442-4.622h-6.668l.422-.947c.617-1.385.932-2.856.936-4.372l.004-1.861a2.61 2.61 0 0 0-2.607-2.607c-1.069 0-2.018.64-2.418 1.631-.018.044-.624 1.831-.624 1.831a9.243 9.243 0 0 1-2.807 4.078l-3.093 2.588h-1.788V12.3c0-.858-.698-1.555-1.555-1.555H1.557c-.858 0-1.555.698-1.555 1.555v15.157c0 .858.698 1.555 1.555 1.555h7.709c.858 0 1.555-.698 1.555-1.555v-1.218h.976l.969.469a17.104 17.104 0 0 0 7.398 1.694h7.354a2.54 2.54 0 0 0 2.537-2.536c0-.531-.165-1.025-.445-1.433a2.536 2.536 0 0 0 .649-3.518 2.536 2.536 0 0 0 1.094-2.085zM9.264 27.456H1.555V12.299h7.709l.001 15.157h-.001zm20.2-11.163h-1.107a.778.778 0 1 0 0 1.556h.458a.982.982 0 0 1 0 1.962h-1.107a.778.778 0 1 0 0 1.556h.458a.982.982 0 0 1 0 1.962h-1.107a.778.778 0 1 0 0 1.556h.458a.982.982 0 0 1 0 1.962h-7.354c-2.314 0-4.638-.532-6.721-1.539l-1.13-.546a.775.775 0 0 0-.338-.078H10.82V14.672h2.071a.779.779 0 0 0 .499-.181l3.31-2.769a10.794 10.794 0 0 0 3.279-4.764s.619-1.801.622-1.814a1.053 1.053 0 0 1 2.001.453l-.004 1.858a9.174 9.174 0 0 1-.801 3.742l-.906 2.031a.775.775 0 0 0-.033.543c.004.015.172.562.747.562h7.859a.982.982 0 0 1 0 1.962z"/></symbol></defs></svg>