<svg aria-hidden="true" style="position: absolute; width: 0; height: 0; overflow: hidden;" version="1.1" xmlns="http://www.w3.org/2000/svg" xmlns:xlink="http://www.w3.org/1999/xlink">
<defs>
<symbol id="icon-clock" viewBox="0 0 32 32" fill="#bedee7">
<path d="M16 2.667c-7.347 0-13.333 5.987-13.333 13.333s5.987 13.333 13.333 13.333c7.347 0 13.333-5.987 13.333-13.333s-5.987-13.333-13.333-13.333zM21.8 20.76c-0.187 0.32-0.52 0.493-0.867 0.493-0.173 0-0.347-0.040-0.507-0.147l-4.133-2.467c-1.027-0.613-1.787-1.96-1.787-3.147v-5.467c0-0.547 0.453-1 1-1s1 0.453 1 1v5.467c0 0.48 0.4 1.187 0.813 1.427l4.133 2.467c0.48 0.28 0.64 0.893 0.347 1.373z"></path>
</symbol>
<symbol id="icon-phone" viewBox="0 0 32 32" fill="#bedee7">
<path d="M28.512 23.669c0.507 0.508 0.82 1.21 0.82 1.984 0 1.079-0.608 2.016-1.5 2.487l-0.015 0.007c-1.372 0.748-3.005 1.187-4.741 1.187-0.91 0-1.792-0.121-2.631-0.348l0.070 0.016c-6.515-1.64-15.879-11.004-17.519-17.519-0.21-0.768-0.331-1.65-0.331-2.561 0-1.736 0.44-3.369 1.214-4.794l-0.026 0.053c0.478-0.908 1.415-1.516 2.495-1.516 0.774 0 1.476 0.313 1.984 0.82l2.78 2.779c0.511 0.506 0.828 1.208 0.828 1.984 0 0.405-0.086 0.79-0.241 1.138l0.007-0.018c-0.262 0.605-0.611 1.122-1.039 1.564l0.001-0.001c-3.179 3.179 7.223 13.58 10.4 10.4 0.44-0.428 0.959-0.778 1.531-1.028l0.033-0.013c0.33-0.148 0.715-0.235 1.12-0.235 0.776 0 1.478 0.317 1.983 0.828l0 0z"></path>
</symbol>
<symbol id="icon-letter" viewBox="0 0 32 32" fill="#bedee7">
<path d="M21.336 16.615l10.509 9.162c0.1-0.328 0.155-0.676 0.155-1.036v-17.423l-10.664 9.297z"></path>
<path d="M16 17.694c0.451-0.001 0.894-0.156 1.257-0.471l13.968-12.177c-0.651-0.817-1.654-1.342-2.78-1.342h-24.889c-1.126 0-2.129 0.525-2.78 1.342l13.968 12.177c0.362 0.315 0.806 0.47 1.257 0.471z"></path>
<path d="M0 7.318v17.423c0 0.36 0.055 0.708 0.155 1.036l10.509-9.162-10.664-9.297z"></path>
<path d="M18.717 18.898c-0.777 0.678-1.75 1.019-2.717 1.018-0.967 0.001-1.941-0.341-2.717-1.018l-0.928-0.809-10.908 9.509c0.59 0.436 1.318 0.697 2.109 0.697h24.889c0.79 0 1.518-0.261 2.109-0.697l-10.908-9.509-0.928 0.809z"></path>
</symbol>
</defs>
</svg>
